<?xml version="1.0" encoding="UTF-8" standalone="no"?>
<!-- Created with Inkscape (http://www.inkscape.org/) -->

<svg
   xmlns:dc="http://purl.org/dc/elements/1.1/"
   xmlns:cc="http://creativecommons.org/ns#"
   xmlns:rdf="http://www.w3.org/1999/02/22-rdf-syntax-ns#"
   xmlns:svg="http://www.w3.org/2000/svg"
   xmlns="http://www.w3.org/2000/svg"
   xmlns:sodipodi="http://sodipodi.sourceforge.net/DTD/sodipodi-0.dtd"
   xmlns:inkscape="http://www.inkscape.org/namespaces/inkscape"
   sodipodi:docname="USB.svg"
   inkscape:export-filename="/home/sam/dev/RESOURCES/gnome-icon-theme-symbolic/src/gnome-stencils.png"
   inkscape:export-xdpi="90"
   inkscape:export-ydpi="90"
   height="16"
   id="svg7384"
   version="1.1"
   inkscape:version="0.48.4 r9939"
   width="16.000002">
  <metadata
     id="metadata90">
    <rdf:RDF>
      <cc:Work
         rdf:about="">
        <dc:format>image/svg+xml</dc:format>
        <dc:type
           rdf:resource="http://purl.org/dc/dcmitype/StillImage" />
        <dc:title>elementary Symbolic Icon Theme</dc:title>
      </cc:Work>
    </rdf:RDF>
  </metadata>
  <sodipodi:namedview
     inkscape:bbox-nodes="true"
     inkscape:bbox-paths="true"
     bordercolor="#666666"
     borderopacity="1"
     inkscape:current-layer="layer10"
     inkscape:cx="11.59477"
     inkscape:cy="16.53763"
     gridtolerance="10"
     inkscape:guide-bbox="true"
     guidetolerance="10"
     id="namedview88"
     inkscape:object-nodes="true"
     inkscape:object-paths="false"
     objecttolerance="10"
     pagecolor="#3a3b39"
     inkscape:pageopacity="1"
     inkscape:pageshadow="2"
     showborder="false"
     showgrid="false"
     showguides="true"
     inkscape:snap-bbox="true"
     inkscape:snap-bbox-edge-midpoints="true"
     inkscape:snap-bbox-midpoints="true"
     inkscape:snap-global="true"
     inkscape:snap-grids="true"
     inkscape:snap-nodes="true"
     inkscape:snap-others="false"
     inkscape:snap-to-guides="true"
     inkscape:window-height="725"
     inkscape:window-maximized="1"
     inkscape:window-width="1366"
     inkscape:window-x="0"
     inkscape:window-y="25"
     inkscape:zoom="11.313708">
    <inkscape:grid
       dotted="false"
       empspacing="4"
       enabled="true"
       id="grid4866"
       originx="-112.0002px"
       originy="-449px"
       snapvisiblegridlinesonly="true"
       spacingx="1px"
       spacingy="1px"
       type="xygrid"
       visible="true" />
    <inkscape:grid
       color="#000000"
       dotted="true"
       empcolor="#000000"
       empopacity="0.25098039"
       empspacing="4"
       enabled="true"
       id="grid13609"
       opacity="0.1254902"
       originx="-112.0002px"
       originy="-449px"
       snapvisiblegridlinesonly="true"
       spacingx="0.5px"
       spacingy="0.5px"
       type="xygrid"
       visible="true" />
  </sodipodi:namedview>
  <title
     id="title9167">elementary Symbolic Icon Theme</title>
  <defs
     id="defs7386">
    <filter
       color-interpolation-filters="sRGB"
       id="filter7554">
      <feBlend
         id="feBlend7556"
         in2="BackgroundImage"
         mode="darken" />
    </filter>
    <filter
       color-interpolation-filters="sRGB"
       id="filter7554-7">
      <feBlend
         id="feBlend7556-6"
         in2="BackgroundImage"
         mode="darken" />
    </filter>
  </defs>
  <g
     inkscape:groupmode="layer"
     id="layer9"
     label="status"
     inkscape:label="status"
     style="display:inline"
     transform="translate(-353.0004,232)" />
  <g
     inkscape:groupmode="layer"
     id="layer10"
     inkscape:label="devices"
     style="display:inline"
     transform="translate(-353.0004,232)">
    <g
       id="g9439"
       inkscape:label="musicplayer"
       transform="matrix(1,0,0,-1,292.0002,251)" />
    <g
       id="g3067"
       transform="matrix(0.72939537,0,0,0.72939537,96.906107,-58.421205)">
      <path
         style="fill:#bebebe;fill-opacity:1;stroke:none"
         sodipodi:nodetypes="csccscc"
         id="rect9463"
         d="m 365.0004,-222 -2e-4,-8 c -5e-5,-2 -2,-2 -2,-2 l -4,0 c 0,0 -2.00005,0 -2,2 l 2e-4,8 z"
         inkscape:connector-curvature="0" />
      <path
         style="fill:#bebebe;fill-opacity:1;stroke:none"
         id="rect9466"
         d="m 358.00042,-217 0,-4 5.99998,0 0,4 -5.99998,0 z m 0.99998,-1 1.00002,0 0,-1 -1.00002,0 0,1 z m 3,0 1.00002,0 0,-1 -1.00002,0 0,1 z"
         inkscape:connector-curvature="0" />
      <path
         style="font-size:medium;font-style:normal;font-variant:normal;font-weight:normal;font-stretch:normal;text-indent:0;text-align:start;text-decoration:none;line-height:normal;letter-spacing:normal;word-spacing:normal;text-transform:none;direction:ltr;block-progression:tb;writing-mode:lr-tb;text-anchor:start;baseline-shift:baseline;color:#000000;fill:#bebebe;fill-opacity:1;stroke:none;stroke-width:1;marker:none;visibility:visible;display:inline;overflow:visible;enable-background:accumulate;font-family:Sans;-inkscape-font-specification:Sans"
         sodipodi:nodetypes="ssccsccscssscccsscscccccccccccccccccccc"
         id="path23000"
         d="m 362.55442,-237.33708 c -0.45429,0.0495 -0.88396,0.2214 -1.25,0.5 -0.48804,0.37146 -0.8125,0.95486 -0.8125,1.6875 l 0,5.3125 c 0,0 0.23582,0.50712 0.5,0.50712 0.26419,0 0.5,-0.50712 0.5,-0.50712 l 0,-5.3125 c 0,-0.4491 0.17165,-0.70389 0.4375,-0.90625 0.26586,-0.20236 0.66377,-0.30023 1.0625,-0.28125 0.39874,0.019 0.78429,0.15409 1.0625,0.40625 0.27822,0.25216 0.46875,0.5845 0.46875,1.125 0,2.1653 1.46382,3.50909 3,3.46875 0.85672,-0.0225 1.68825,-0.47696 2.25,-1.3125 l -0.5625,-1 c -0.37536,0.9157 -1.06785,1.29541 -1.71875,1.3125 -0.96046,0.0252 -1.96875,-0.72975 -1.96875,-2.46875 0,-0.79197 -0.33681,-1.44388 -0.8125,-1.875 -0.47568,-0.43112 -1.08103,-0.62738 -1.6875,-0.65625 -0.15161,-0.007 -0.31732,-0.0165 -0.46875,0 z m 6.9375,2 c 0,0.0455 9e-4,0.0807 0,0.125 l 0.78125,1.375 c 0.0114,-0.0408 0.0208,-0.0833 0.0312,-0.125 z m 0,0.34375 c -0.006,0.10599 -0.0202,0.21386 -0.0312,0.3125 l 0.71875,1.21875 c 0.0234,-0.0625 0.0415,-0.12233 0.0625,-0.1875 z m -0.0625,0.5 c -0.0138,0.0899 -0.0444,0.16659 -0.0625,0.25 l 0.65625,1.125 c 0.0293,-0.0609 0.067,-0.12359 0.0937,-0.1875 z m -0.0937,0.4375 c -0.0237,0.0889 -0.0654,0.16899 -0.0937,0.25 l 0.59375,1.03125 c 0.0401,-0.0651 0.088,-0.1182 0.125,-0.1875 z"
         inkscape:connector-curvature="0" />
      <rect
         y="-231.33708"
         x="357.49194"
         width="7.0000138"
         style="color:#000000;fill:#bebebe;fill-opacity:1;fill-rule:nonzero;stroke:none;stroke-width:1;marker:none;visibility:visible;display:inline;overflow:visible;enable-background:accumulate"
         ry="0.7270034"
         rx="0.7270034"
         id="rect23032"
         height="7.9999976" />
    </g>
  </g>
  <g
     inkscape:groupmode="layer"
     id="layer13"
     inkscape:label="places"
     style="display:inline"
     transform="translate(-353.0004,232)" />
  <g
     inkscape:groupmode="layer"
     id="layer14"
     inkscape:label="mimes"
     transform="translate(-353.0004,232)" />
  <g
     inkscape:groupmode="layer"
     id="layer15"
     inkscape:label="emblems"
     style="display:inline"
     transform="translate(-353.0004,232)" />
  <g
     inkscape:groupmode="layer"
     id="g71291"
     inkscape:label="emotes"
     style="display:inline"
     transform="translate(-353.0004,232)" />
  <g
     inkscape:groupmode="layer"
     id="layer12"
     inkscape:label="actions"
     style="display:inline"
     transform="translate(-353.0004,232)" />
</svg>
